# xmcd
#
# Track frame offsets: 
#        150
#        16357
#        32394
#        46465
#        58765
#        71737
#        84377
#        99847
#        114790
#        129792
#        145172
#        160242
#        172547
#        185985
#
# Disc length: 2669 seconds
#
# Revision: 1
# Processed by: cddbd v1.5.2PL0 Copyright (c) Steve Scherf et al.
# Submitted via: ExactAudioCopyFreeDBPlugin 1.0
#
DISCID=a90a6b0e
DTITLE=Renato Reixeira - RCA 100 Anos de Música
DYEAR=2001
DGENRE=Country
TTITLE0=Sina de Violeiro
TTITLE1=Amora
TTITLE2=Cavalo Bravo
TTITLE3=Sessenta Léguas Num Dia
TTITLE4=Rio Abaixo
TTITLE5=Arraial
TTITLE6=Vicente
TTITLE7=Águas Claras
TTITLE8=Uma Doce Canção
TTITLE9=Tutu Com Torresmo
TTITLE10=Alforje
TTITLE11=Doradinho
TTITLE12=Terumi
TTITLE13=Canta moçada
EXTD=
EXTT0=
EXTT1=
EXTT2=
EXTT3=
EXTT4=
EXTT5=
EXTT6=
EXTT7=
EXTT8=
EXTT9=
EXTT10=
EXTT11=
EXTT12=
EXTT13=
PLAYORDER=
